<?xml version="1.0" encoding="UTF-8"?>
<svg width="169px" height="50px" viewBox="0 0 169 50" version="1.1" xmlns="http://www.w3.org/2000/svg" xmlns:xlink="http://www.w3.org/1999/xlink">
    <!-- Generator: Sketch 42 (36781) - http://www.bohemiancoding.com/sketch -->
    <title>Download_on_the_App_Store_Badge_US-UK_135x40</title>
    <desc>Created with Sketch.</desc>
    <defs></defs>
    <g id="Branding" stroke="none" stroke-width="1" fill="none" fill-rule="evenodd">
        <g id="Tablet-Portrait" transform="translate(-199.000000, -229.000000)" fill-rule="nonzero">
            <g id="Hero">
                <g id="CTA-Buttons" transform="translate(199.000000, 228.000000)">
                    <g id="Download_on_the_App_Store_Badge_US-UK_135x40" transform="translate(0.000000, 1.000000)">
                        <g id="US_UK_Download_on_the">
                            <g id="Group">
                                <path d="M162.694254,49.7843125 L5.9093614,49.7843125 C2.65165255,49.7843125 0,47.1357871 0,43.8935837 L0,5.88201653 C0,2.63856856 2.65165255,0 5.9093614,0 L162.694254,0 C165.950713,0 168.696086,2.63856856 168.696086,5.88201653 L168.696086,43.8935837 C168.696086,47.1357871 165.950713,49.7843125 162.694254,49.7843125 L162.694254,49.7843125 Z" id="Shape" fill="#A6A6A6"></path>
                                <path d="M167.714629,44.0941756 C167.714629,46.7427205 165.569258,48.8880918 162.915706,48.8880918 L5.86926542,48.8880918 C3.21696559,48.8880918 1.06408417,46.7427205 1.06408417,44.0941756 L1.06408417,5.86425872 C1.06408417,3.21696559 3.21696559,1.06408417 5.86926542,1.06408417 L162.914455,1.06408417 C165.569258,1.06408417 167.713378,3.21696559 167.713378,5.86425872 L167.714629,44.0941756 L167.714629,44.0941756 Z" id="Shape" fill="#000000"></path>
                                <g transform="translate(14.347202, 7.173601)" id="Shape" fill="#FFFFFF">
                                    <path d="M21.6738403,16.480153 C21.6391679,12.6267336 24.8290292,10.7520325 24.9748924,10.6647537 C23.1683405,8.03084648 20.3682449,7.67097083 19.3842659,7.64227642 C17.0325203,7.39478718 14.7513152,9.04949785 13.5533238,9.04949785 C12.3314204,9.04949785 10.4866093,7.66618843 8.49832616,7.70683883 C5.93974175,7.74629364 3.54615017,9.22764228 2.23338116,11.527977 C-0.475848876,16.2183166 1.54471545,23.1109517 4.14036346,26.9021999 C5.43878527,28.758967 6.95600191,30.8321377 8.94189383,30.7592061 C10.8847441,30.6791009 11.6104735,29.5205643 13.9550454,29.5205643 C16.2780966,29.5205643 16.9595887,30.7592061 18.9849354,30.7125777 C21.0700622,30.6791009 22.3828312,28.8474414 23.6358202,26.9739359 C25.1362984,24.8457676 25.7388809,22.7498804 25.7627929,22.6422764 C25.7137733,22.625538 21.7132951,21.0987566 21.6738403,16.480153 Z"></path>
                                    <path d="M17.8479197,5.14825442 C18.8928742,3.84146341 19.6078431,2.06360593 19.4093735,0.259445242 C17.8969393,0.326398852 16.0054998,1.30559541 14.916308,2.58369201 C13.9526542,3.70994739 13.0918221,5.55595409 13.3142037,7.29196557 C15.0131516,7.41869919 16.7575323,6.43472023 17.8479197,5.14825442 Z"></path>
                                </g>
                                <g transform="translate(50.215208, 21.520803)" id="Shape" fill="#FFFFFF">
                                    <path d="M13.9227642,16.145385 L11.2075562,16.145385 L9.72022956,11.4717838 L4.55045433,11.4717838 L3.1336681,16.145385 L0.490196078,16.145385 L5.6121473,0.234337637 L8.7757054,0.234337637 L13.9227642,16.145385 Z M9.27187948,9.51099952 L7.92682927,5.35628886 C7.78455285,4.93185079 7.517934,3.93232903 7.12458154,2.35891918 L7.07675753,2.35891918 C6.92013391,3.03562889 6.66786227,4.03515065 6.32113821,5.35628886 L5,9.51099952 L9.27187948,9.51099952 L9.27187948,9.51099952 Z"></path>
                                    <path d="M27.0946915,10.2678144 C27.0946915,12.219034 26.5674319,13.7613582 25.5129125,14.8935916 C24.5683883,15.9014825 23.3955045,16.4048302 21.9954567,16.4048302 C20.4842181,16.4048302 19.3986131,15.8620277 18.7374462,14.7764228 L18.6896222,14.7764228 L18.6896222,20.8201817 L16.1406026,20.8201817 L16.1406026,8.44930655 C16.1406026,7.22262076 16.1083214,5.96365375 16.0461502,4.67240555 L18.2879005,4.67240555 L18.4301769,6.49091344 L18.478001,6.49091344 C19.3280727,5.12075562 20.6181253,4.43687231 22.3493544,4.43687231 C23.7027738,4.43687231 24.832616,4.9713056 25.7364897,6.04136777 C26.6427547,7.11262554 27.0946915,8.52104256 27.0946915,10.2678144 Z M24.4978479,10.3610713 C24.4978479,9.24438068 24.2467719,8.32376853 23.7422286,7.59923482 C23.1910569,6.84361549 22.4509804,6.46580583 21.5231946,6.46580583 C20.8943089,6.46580583 20.3228121,6.67623147 19.8122908,7.09110473 C19.3005739,7.5095648 18.9658058,8.05595409 18.8091822,8.7326638 C18.7302726,9.04830225 18.6908178,9.30655189 18.6908178,9.50980392 L18.6908178,11.4227642 C18.6908178,12.2572932 18.9466762,12.9615017 19.4583931,13.5365854 C19.97011,14.1116691 20.6348637,14.3986131 21.4526542,14.3986131 C22.4127212,14.3986131 23.1599713,14.027977 23.6944046,13.2890961 C24.2300335,12.5490196 24.4978479,11.5734099 24.4978479,10.3610713 Z"></path>
                                    <path d="M40.2905308,10.2678144 C40.2905308,12.219034 39.7632712,13.7613582 38.7075562,14.8935916 C37.7642276,15.9014825 36.5913439,16.4048302 35.191296,16.4048302 C33.6800574,16.4048302 32.5944524,15.8620277 31.9344811,14.7764228 L31.8866571,14.7764228 L31.8866571,20.8201817 L29.3376375,20.8201817 L29.3376375,8.44930655 C29.3376375,7.22262076 29.3053563,5.96365375 29.2431851,4.67240555 L31.4849354,4.67240555 L31.6272119,6.49091344 L31.6750359,6.49091344 C32.523912,5.12075562 33.8139646,4.43687231 35.5463893,4.43687231 C36.8986131,4.43687231 38.0284553,4.9713056 38.9347202,6.04136777 C39.8373984,7.11262554 40.2905308,8.52104256 40.2905308,10.2678144 Z M37.6936872,10.3610713 C37.6936872,9.24438068 37.4414156,8.32376853 36.9368723,7.59923482 C36.3857006,6.84361549 35.6480153,6.46580583 34.719034,6.46580583 C34.0889527,6.46580583 33.5186514,6.67623147 33.0069345,7.09110473 C32.4952176,7.5095648 32.1616451,8.05595409 32.0050215,8.7326638 C31.9273075,9.04830225 31.8866571,9.30655189 31.8866571,9.50980392 L31.8866571,11.4227642 C31.8866571,12.2572932 32.1425155,12.9615017 32.6518412,13.5365854 C33.1635581,14.1104735 33.8283118,14.3986131 34.6484935,14.3986131 C35.6085605,14.3986131 36.3558106,14.027977 36.8902439,13.2890961 C37.4258728,12.5490196 37.6936872,11.5734099 37.6936872,10.3610713 Z"></path>
                                    <path d="M55.0442372,11.6834051 C55.0442372,13.0368245 54.5743663,14.1379723 53.6310378,14.988044 C52.5944524,15.9170253 51.151363,16.3809182 49.2969871,16.3809182 C47.5848876,16.3809182 46.2123386,16.0509326 45.173362,15.3897657 L45.7639885,13.2651841 C46.8830703,13.9418938 48.1109517,14.2814443 49.4488283,14.2814443 C50.4088953,14.2814443 51.1561454,14.0638451 51.6929699,13.6310378 C52.2274032,13.1982305 52.494022,12.6171688 52.494022,11.8926351 C52.494022,11.247011 52.2740316,10.7030129 51.8328551,10.2618364 C51.3940698,9.82065997 50.6611669,9.41056911 49.6377331,9.03156385 C46.8519847,7.99258728 45.4603061,6.47058824 45.4603061,4.46915352 C45.4603061,3.16116691 45.948111,2.08871353 46.9249163,1.2541846 C47.8981349,0.418460067 49.1965567,0.00119560019 50.8201817,0.00119560019 C52.2680536,0.00119560019 53.4708274,0.253467241 54.4308943,0.756814921 L53.7936394,2.83476805 C52.8969393,2.34696318 51.8830703,2.10306074 50.7484457,2.10306074 C49.8517456,2.10306074 49.1511239,2.32424677 48.6489718,2.76422764 C48.2245337,3.15758011 48.0117169,3.63701578 48.0117169,4.20492587 C48.0117169,4.83381157 48.2544237,5.35389766 48.7422286,5.76279292 C49.1666667,6.14060258 49.9378288,6.54949785 51.0569106,6.99067432 C52.4258728,7.54184601 53.4313725,8.18627451 54.0781923,8.92515543 C54.7226208,9.66164515 55.0442372,10.5834529 55.0442372,11.6834051 Z"></path>
                                    <path d="M63.472023,6.58536585 L60.6623625,6.58536585 L60.6623625,12.1556671 C60.6623625,13.5724534 61.157341,14.2802487 62.1496891,14.2802487 C62.6052128,14.2802487 62.9830225,14.2407939 63.2819225,14.1618843 L63.3524629,16.097561 C62.8503109,16.2852702 62.189144,16.3797226 61.3701578,16.3797226 C60.3634625,16.3797226 59.5767575,16.0724534 59.0088474,15.4591105 C58.4433286,14.844572 58.1587757,13.8139646 58.1587757,12.3660928 L58.1587757,6.58297465 L56.4849354,6.58297465 L56.4849354,4.67001435 L58.1587757,4.67001435 L58.1587757,2.56934481 L60.6623625,1.81372549 L60.6623625,4.67001435 L63.472023,4.67001435 L63.472023,6.58536585 Z"></path>
                                    <path d="M76.1489718,10.3144429 C76.1489718,12.0779531 75.6444285,13.525825 74.6377331,14.6580583 C73.5820182,15.8237685 72.1807747,16.4048302 70.4340029,16.4048302 C68.7505978,16.4048302 67.41033,15.8464849 66.4108082,14.7297944 C65.4112865,13.6131038 64.9115256,12.2034912 64.9115256,10.5045433 C64.9115256,8.7266858 65.4256337,7.27044476 66.4574366,6.13821138 C67.4868484,5.0047824 68.8761358,4.43806791 70.6229077,4.43806791 C72.3063128,4.43806791 73.6609278,4.9964132 74.6831659,6.11429938 C75.6611669,7.19870875 76.1489718,8.59875658 76.1489718,10.3144429 Z M73.5043042,10.3969393 C73.5043042,9.33883309 73.2783357,8.43137255 72.8204209,7.67455763 C72.2859876,6.75872788 71.521999,6.30200861 70.5320421,6.30200861 C69.5074127,6.30200861 68.729077,6.75992348 68.1946437,7.67455763 C67.7367288,8.43256815 67.5107604,9.3543759 67.5107604,10.4447633 C67.5107604,11.5028694 67.7367288,12.41033 68.1946437,13.1659493 C68.7458154,14.0817791 69.5157819,14.5384983 70.5093257,14.5384983 C71.4825442,14.5384983 72.2465328,14.0722143 72.7977044,13.1420373 C73.2675753,12.3708752 73.5043042,11.4538498 73.5043042,10.3969393 Z"></path>
                                    <path d="M84.4344811,6.91415591 C84.1822095,6.8675275 83.9131994,6.84361549 83.6310378,6.84361549 C82.7343376,6.84361549 82.0408895,7.18197035 81.5530846,7.85987566 C81.1286466,8.45767575 80.9158297,9.21329507 80.9158297,10.125538 L80.9158297,16.145385 L78.3680057,16.145385 L78.3919177,8.28550933 C78.3919177,6.96317551 78.3596365,5.75920612 78.2962697,4.67360115 L80.5164993,4.67360115 L80.6097561,6.8687231 L80.6802965,6.8687231 C80.9493066,6.11429938 81.3737446,5.50693448 81.9548063,5.05141081 C82.5227164,4.64131994 83.1360593,4.43687231 83.7972262,4.43687231 C84.0327594,4.43687231 84.2455763,4.45361071 84.4344811,4.48350072 L84.4344811,6.91415591 Z"></path>
                                    <path d="M95.8345289,9.86609278 C95.8345289,10.3228121 95.8046389,10.7077953 95.7412721,11.0222382 L88.0942133,11.0222382 C88.1241033,12.1556671 88.4935438,13.0224773 89.2037303,13.6202774 C89.8481588,14.1547107 90.6814921,14.4225251 91.7049259,14.4225251 C92.8371593,14.4225251 93.8701578,14.2419895 94.7991392,13.8797226 L95.1984696,15.6492109 C94.1128647,16.1226686 92.8311813,16.3582018 91.3522238,16.3582018 C89.5731707,16.3582018 88.1767097,15.8345289 87.1604495,14.7883788 C86.1465806,13.7422286 85.6384505,12.3373984 85.6384505,10.5750837 C85.6384505,8.84505022 86.1107126,7.40435198 87.0564323,6.2553802 C88.0463893,5.0286944 89.3842659,4.41535151 91.067671,4.41535151 C92.721186,4.41535151 93.9729794,5.0286944 94.8230512,6.2553802 C95.4961741,7.22979436 95.8345289,8.43495935 95.8345289,9.86609278 Z M93.4038737,9.20492587 C93.4206121,8.44930655 93.2544237,7.79650885 92.9088953,7.24533716 C92.4677188,6.53634625 91.7898135,6.18244859 90.8775705,6.18244859 C90.0442372,6.18244859 89.3663319,6.52797704 88.848637,7.22142516 C88.4241989,7.77259684 88.1719273,8.43376375 88.0942133,9.20373027 L93.4038737,9.20373027 L93.4038737,9.20492587 Z"></path>
                                </g>
                                <g transform="translate(51.410808, 7.173601)" id="Shape" fill="#FFFFFF">
                                    <path d="M7.23338116,4.79316117 C7.23338116,6.20038259 6.81133429,7.25968436 5.96843615,7.97106648 C5.18770923,8.62745098 4.07819225,8.95624103 2.64108082,8.95624103 C1.92850311,8.95624103 1.31874701,8.92515543 0.808225729,8.86298422 L0.808225729,1.17407939 C1.47417504,1.06647537 2.19153515,1.01147776 2.96628407,1.01147776 C4.33524629,1.01147776 5.36704926,1.30918221 6.06288857,1.9045911 C6.84241989,2.57771401 7.23338116,3.54017217 7.23338116,4.79316117 Z M5.91224295,4.82783357 C5.91224295,3.91559063 5.67073171,3.21616451 5.18770923,2.72835964 C4.70468675,2.24175036 3.99928264,1.99784792 3.07030129,1.99784792 C2.67575323,1.99784792 2.33978957,2.02415112 2.06121473,2.07914873 L2.06121473,7.92443807 C2.21544715,7.94835007 2.4976088,7.95911047 2.90769967,7.95911047 C3.86657102,7.95911047 4.60664754,7.69249163 5.12792922,7.15925395 C5.6492109,6.62601626 5.91224295,5.84887614 5.91224295,4.82783357 Z"></path>
                                    <path d="M14.2384027,6.02223816 C14.2384027,6.8890483 13.9909134,7.59923482 13.495935,8.15638451 C12.9770445,8.729077 12.2895744,9.01482544 11.4311334,9.01482544 C10.6037781,9.01482544 9.94500239,8.741033 9.45361071,8.19105691 C8.96341463,7.64227642 8.71831659,6.95002391 8.71831659,6.11549498 C8.71831659,5.24270684 8.97058824,4.52654232 9.47752272,3.97058824 C9.9844572,3.41463415 10.6659493,3.1360593 11.5243902,3.1360593 C12.3517456,3.1360593 13.0164993,3.40985175 13.519847,3.95863223 C13.998087,4.49186992 14.2384027,5.18053563 14.2384027,6.02223816 Z M12.9387853,6.06288857 C12.9387853,5.54280249 12.8263989,5.09684362 12.6028216,4.72501196 C12.3397896,4.27546628 11.9655667,4.05069345 11.4789574,4.05069345 C10.9756098,4.05069345 10.5930177,4.27546628 10.3299857,4.72501196 C10.1052128,5.09684362 9.994022,5.54997609 9.994022,6.08560497 C9.994022,6.60569106 10.1064084,7.05164993 10.3299857,7.42348159 C10.6013869,7.87302726 10.9791966,8.0978001 11.4670014,8.0978001 C11.9452415,8.0978001 12.32066,7.86944046 12.5908656,7.41152559 C12.8228121,7.03252033 12.9387853,6.58297465 12.9387853,6.06288857 Z"></path>
                                    <path d="M23.6310378,3.25083692 L21.8675275,8.88689622 L20.7197513,8.88689622 L19.9892396,6.43950263 C19.8039216,5.82855093 19.6532759,5.22118604 19.5361071,4.61860354 L19.5133907,4.61860354 C19.4045911,5.23792444 19.2539455,5.84409374 19.0602582,6.43950263 L18.2843137,8.88689622 L17.1233859,8.88689622 L15.4650885,3.25083692 L16.7527499,3.25083692 L17.3900048,5.93017695 C17.5442372,6.56384505 17.6709708,7.16762315 17.7725968,7.73912004 L17.7953132,7.73912004 C17.8885701,7.26805356 18.0428025,6.66786227 18.2604017,5.94213295 L19.0602582,3.25203252 L20.0813008,3.25203252 L20.8476805,5.88474414 C21.0329986,6.52678144 21.1836442,7.14490674 21.2996174,7.74031564 L21.3342898,7.74031564 C21.4191774,7.16044955 21.5471066,6.54232425 21.7168819,5.88474414 L22.4007652,3.25203252 L23.6310378,3.25203252 L23.6310378,3.25083692 Z"></path>
                                    <path d="M30.1267336,8.88689622 L28.8737446,8.88689622 L28.8737446,5.65877571 C28.8737446,4.66403635 28.495935,4.16666667 27.7379244,4.16666667 C27.3660928,4.16666667 27.0659971,4.30296509 26.8328551,4.57675753 C26.6021043,4.85054998 26.4849354,5.17336203 26.4849354,5.54280249 L26.4849354,8.88570062 L25.2319464,8.88570062 L25.2319464,4.86131038 C25.2319464,4.3663319 25.2164036,3.82950741 25.1865136,3.24844572 L26.2876614,3.24844572 L26.3462458,4.12960306 L26.3809182,4.12960306 C26.5267814,3.85581062 26.7443807,3.62984218 27.0301291,3.44930655 C27.3696796,3.23888092 27.7498804,3.1324725 28.1659493,3.1324725 C28.6920134,3.1324725 29.1296031,3.30224773 29.4775227,3.64299378 C29.91033,4.06025825 30.1267336,4.68316595 30.1267336,5.51052128 L30.1267336,8.88689622 L30.1267336,8.88689622 Z"></path>
                                    <polygon points="33.5820182 8.88689622 32.3302248 8.88689622 32.3302248 0.664753706 33.5820182 0.664753706"></polygon>
                                    <path d="M40.9588714,6.02223816 C40.9588714,6.8890483 40.7113821,7.59923482 40.2164036,8.15638451 C39.6975132,8.729077 39.0088474,9.01482544 38.1516021,9.01482544 C37.3230512,9.01482544 36.6642755,8.741033 36.1740794,8.19105691 C35.6838833,7.64227642 35.4387853,6.95002391 35.4387853,6.11549498 C35.4387853,5.24270684 35.6910569,4.52654232 36.1979914,3.97058824 C36.7049259,3.41463415 37.386418,3.1360593 38.2436633,3.1360593 C39.0722143,3.1360593 39.7357724,3.40985175 40.2403156,3.95863223 C40.7185557,4.49186992 40.9588714,5.18053563 40.9588714,6.02223816 Z M39.6580583,6.06288857 C39.6580583,5.54280249 39.5456719,5.09684362 39.3220947,4.72501196 C39.0602582,4.27546628 38.6848398,4.05069345 38.1994261,4.05069345 C37.6948828,4.05069345 37.3122908,4.27546628 37.0504543,4.72501196 C36.8256815,5.09684362 36.7144907,5.54997609 36.7144907,6.08560497 C36.7144907,6.60569106 36.8268771,7.05164993 37.0504543,7.42348159 C37.3218556,7.87302726 37.6996652,8.0978001 38.1874701,8.0978001 C38.6657102,8.0978001 39.039933,7.86944046 39.3101387,7.41152559 C39.5432807,7.03252033 39.6580583,6.58297465 39.6580583,6.06288857 Z"></path>
                                    <path d="M47.0229555,8.88689622 L45.8978957,8.88689622 L45.8046389,8.23768532 L45.7699665,8.23768532 C45.3849833,8.7553802 44.8362028,9.01482544 44.1236251,9.01482544 C43.591583,9.01482544 43.1611669,8.84385462 42.8371593,8.50430416 C42.5430416,8.19583931 42.3959828,7.81205165 42.3959828,7.35652798 C42.3959828,6.66786227 42.6829268,6.14299378 43.2604017,5.77953132 C43.836681,5.41606887 44.6472979,5.23792444 45.6910569,5.24629364 L45.6910569,5.14108082 C45.6910569,4.3986131 45.3012912,4.02797704 44.5205643,4.02797704 C43.9646102,4.02797704 43.4744142,4.16786227 43.0511717,4.44524151 L42.7965088,3.62266858 C43.3201817,3.29866093 43.9670014,3.1360593 44.7297944,3.1360593 C46.2027738,3.1360593 46.9416547,3.91319943 46.9416547,5.46747967 L46.9416547,7.54304161 C46.9416547,8.1061693 46.9691535,8.55451937 47.0229555,8.88689622 Z M45.7221425,6.95002391 L45.7221425,6.08082257 C44.3400287,6.05691057 43.6489718,6.43591583 43.6489718,7.21664275 C43.6489718,7.5107604 43.7278814,7.73075084 43.8892874,7.87780966 C44.0506934,8.02486848 44.2563367,8.0978001 44.5014347,8.0978001 C44.7764228,8.0978001 45.0334768,8.01052128 45.2678144,7.83715925 C45.5033477,7.66260163 45.6480153,7.44141559 45.7018173,7.17001435 C45.7149689,7.10903874 45.7221425,7.03491153 45.7221425,6.95002391 Z"></path>
                                    <path d="M54.1427547,8.88689622 L53.0308465,8.88689622 L52.9722621,7.98182688 L52.9375897,7.98182688 C52.5824964,8.67049259 51.9775227,9.01482544 51.127451,9.01482544 C50.4483501,9.01482544 49.8828312,8.7482066 49.4344811,8.21496891 C48.986131,7.68173123 48.7625538,6.98947872 48.7625538,6.13940698 C48.7625538,5.22716404 49.0052606,4.48828312 49.4930655,3.92395983 C49.9653276,3.39789574 50.5439981,3.1348637 51.2326638,3.1348637 C51.9894787,3.1348637 52.5191296,3.38952654 52.8204209,3.90004782 L52.8443329,3.90004782 L52.8443329,0.664753706 L54.0985175,0.664753706 L54.0985175,7.36848398 C54.0985175,7.91726447 54.1128647,8.42300335 54.1427547,8.88689622 Z M52.8443329,6.51004304 L52.8443329,5.57030129 C52.8443329,5.40769967 52.8323769,5.27618364 52.8096604,5.17575323 C52.73912,4.87446198 52.5872788,4.62099474 52.356528,4.41654711 C52.1233859,4.21209947 51.8424199,4.10927786 51.5184122,4.10927786 C51.0509326,4.10927786 50.6850789,4.29459589 50.4160689,4.66642755 C50.14945,5.03825921 50.0143472,5.51291248 50.0143472,6.09277857 C50.0143472,6.64992826 50.1422764,7.10186514 50.3993305,7.44978479 C50.6707317,7.82042085 51.0365854,8.00573888 51.4945002,8.00573888 C51.9057867,8.00573888 52.2345768,7.85150646 52.4844572,7.54184601 C52.7259684,7.25609756 52.8443329,6.91176471 52.8443329,6.51004304 Z"></path>
                                    <path d="M64.8589192,6.02223816 C64.8589192,6.8890483 64.6114299,7.59923482 64.1164515,8.15638451 C63.597561,8.729077 62.9112865,9.01482544 62.0516499,9.01482544 C61.2254902,9.01482544 60.5667145,8.741033 60.0741272,8.19105691 C59.5839311,7.64227642 59.3388331,6.95002391 59.3388331,6.11549498 C59.3388331,5.24270684 59.5911047,4.52654232 60.0980392,3.97058824 C60.6049737,3.41463415 61.2864658,3.1360593 62.1461023,3.1360593 C62.9722621,3.1360593 63.6382114,3.40985175 64.1403635,3.95863223 C64.6186035,4.49186992 64.8589192,5.18053563 64.8589192,6.02223816 Z M63.5604974,6.06288857 C63.5604974,5.54280249 63.448111,5.09684362 63.2245337,4.72501196 C62.9603061,4.27546628 62.5872788,4.05069345 62.0994739,4.05069345 C61.5973219,4.05069345 61.2147298,4.27546628 60.9505022,4.72501196 C60.7257293,5.09684362 60.6145385,5.54997609 60.6145385,6.08560497 C60.6145385,6.60569106 60.7269249,7.05164993 60.9505022,7.42348159 C61.2219034,7.87302726 61.5997131,8.0978001 62.0875179,8.0978001 C62.565758,8.0978001 62.9423721,7.86944046 63.2125777,7.41152559 C63.4433286,7.03252033 63.5604974,6.58297465 63.5604974,6.06288857 Z"></path>
                                    <path d="M71.5961263,8.88689622 L70.3443329,8.88689622 L70.3443329,5.65877571 C70.3443329,4.66403635 69.9665232,4.16666667 69.2073171,4.16666667 C68.8354854,4.16666667 68.5353898,4.30296509 68.3034433,4.57675753 C68.0714969,4.85054998 67.9555237,5.17336203 67.9555237,5.54280249 L67.9555237,8.88570062 L66.7013391,8.88570062 L66.7013391,4.86131038 C66.7013391,4.3663319 66.6869919,3.82950741 66.6571019,3.24844572 L67.757054,3.24844572 L67.8156385,4.12960306 L67.8503109,4.12960306 C67.9973697,3.85581062 68.2149689,3.62984218 68.4995218,3.44930655 C68.8402678,3.23888092 69.2192731,3.1324725 69.6365375,3.1324725 C70.161406,3.1324725 70.5989957,3.30224773 70.9469154,3.64299378 C71.3809182,4.06025825 71.5961263,4.68316595 71.5961263,5.51052128 L71.5961263,8.88689622 L71.5961263,8.88689622 Z"></path>
                                    <path d="M80.0286944,4.18938307 L78.6489718,4.18938307 L78.6489718,6.92730751 C78.6489718,7.62314682 78.8940698,7.97106648 79.3794835,7.97106648 C79.6042563,7.97106648 79.79077,7.95193687 79.9378288,7.91248207 L79.97011,8.86298422 C79.7226208,8.95624103 79.3974175,9.00286944 78.9968914,9.00286944 C78.501913,9.00286944 78.1169297,8.85222382 77.8383549,8.55093257 C77.5585844,8.24964132 77.4198948,7.74270684 77.4198948,7.03132473 L77.4198948,4.18938307 L76.5961263,4.18938307 L76.5961263,3.25083692 L77.4198948,3.25083692 L77.4198948,2.21783835 L78.6477762,1.8472023 L78.6477762,3.24964132 L80.0274988,3.24964132 L80.0274988,4.18938307 L80.0286944,4.18938307 Z"></path>
                                    <path d="M86.6618843,8.88689622 L85.4076997,8.88689622 L85.4076997,5.68268771 C85.4076997,4.67240555 85.02989,4.16666667 84.2730751,4.16666667 C83.6920134,4.16666667 83.2950741,4.45958871 83.0774749,5.04543281 C83.0404113,5.16857963 83.0188905,5.31922525 83.0188905,5.49617408 L83.0188905,8.88570062 L81.7670971,8.88570062 L81.7670971,0.664753706 L83.0188905,0.664753706 L83.0188905,4.06145385 L83.0428025,4.06145385 C83.4373505,3.44332855 84.0028694,3.1348637 84.7357724,3.1348637 C85.2546628,3.1348637 85.6838833,3.30463893 86.0246294,3.64538498 C86.4490674,4.06982305 86.6618843,4.70109995 86.6618843,5.53562889 L86.6618843,8.88689622 L86.6618843,8.88689622 Z"></path>
                                    <path d="M93.5043042,5.80224773 C93.5043042,6.02702056 93.4875658,6.21592539 93.4576758,6.37015782 L89.6999044,6.37015782 C89.7166428,6.92730751 89.8959828,7.35174558 90.2439024,7.64586322 C90.5619321,7.90889527 90.972023,8.04041129 91.474175,8.04041129 C92.0301291,8.04041129 92.5370636,7.95193687 92.9937829,7.77379244 L93.1898613,8.64418938 C92.655428,8.87613582 92.0265423,8.99210904 91.2984218,8.99210904 C90.4256337,8.99210904 89.7381636,8.735055 89.2407939,8.22094692 C88.741033,7.70683883 88.4935438,7.01697752 88.4935438,6.15136298 C88.4935438,5.30129125 88.7242946,4.59349593 89.1893831,4.02917264 C89.6747967,3.42659015 90.3311813,3.1252989 91.1597322,3.1252989 C91.9703491,3.1252989 92.5860832,3.42659015 93.0021521,4.02917264 C93.3381157,4.50741272 93.5043042,5.09923482 93.5043042,5.80224773 Z M92.308704,5.47824008 C92.3182688,5.10640842 92.2357724,4.78598757 92.0659971,4.51578192 C91.8483979,4.16786227 91.5172166,3.99330464 91.0688666,3.99330464 C90.6599713,3.99330464 90.3263989,4.16307987 90.071736,4.50382592 C89.8637016,4.77522716 89.7405548,5.09923482 89.6999044,5.47824008 L92.308704,5.47824008 Z"></path>
                                </g>
                            </g>
                        </g>
                    </g>
                </g>
            </g>
        </g>
    </g>
</svg>