<?xml version="1.0" encoding="UTF-8"?>
<svg width="311px" height="612px" viewBox="0 0 311 612" version="1.1" xmlns="http://www.w3.org/2000/svg" xmlns:xlink="http://www.w3.org/1999/xlink">
    <!-- Generator: Sketch 42 (36781) - http://www.bohemiancoding.com/sketch -->
    <title>iPhone 6 - dark</title>
    <desc>Created with Sketch.</desc>
    <defs>
        <rect id="path-1" x="130.572152" y="36.5421995" width="57.5139241" height="9.32992327" rx="4.66496164"></rect>
        <mask id="mask-2" maskContentUnits="userSpaceOnUse" maskUnits="objectBoundingBox" x="0" y="0" width="57.5139241" height="9.32992327" fill="white">
            <use xlink:href="#path-1"></use>
        </mask>
    </defs>
    <g id="Branding" stroke="none" stroke-width="1" fill="none" fill-rule="evenodd" opacity="0.15">
        <g id="Desktop" transform="translate(-98.000000, -978.000000)">
            <g id="Benefit-2" transform="translate(0.000000, 920.000000)">
                <g id="Mockup" transform="translate(100.000000, 60.000000)">
                    <g id="iPhone-6---dark" transform="translate(0.227586, 0.152542)">
                        <g id="iPhone-6">
                            <path d="M3.10886076,246.697128 L2.0040392,246.664125 C0.897238912,246.631062 -2.07091728e-15,245.704636 -2.07091728e-15,244.610981 L-2.07091728e-15,203.56092 C-2.07091728e-15,202.460063 0.899211342,201.551965 2.0040392,201.532704 L3.10886076,201.513443 L3.10886076,174.979037 L3.0054234,174.978938 C1.34557389,174.977339 -7.3162472e-16,173.628838 -7.82497373e-16,171.970134 L-1.97872566e-15,132.967089 C-2.02964169e-15,131.306971 1.33647901,129.958755 3.0054234,129.955728 L3.10886076,129.95554 L3.10886076,103.699512 L3.0054234,103.699512 C1.34557389,103.699514 -2.76122304e-15,102.365793 -2.76122304e-15,100.707633 L-2.76122304e-15,84.8447053 C-2.76122304e-15,83.1923347 1.3486955,81.8528237 2.99108773,81.8528237 L3.62199029,81.8528237 L3.48498663,59.9984266 C3.27725805,26.8622106 29.9665943,0 63.1185163,0 L243.881484,0 C277.023901,0 303.891139,26.853 303.891139,60.0030375 L303.891139,129.789033 L303.994577,129.789033 C305.654426,129.789033 307,131.131147 307,132.791245 L307,171.226993 C307,172.885068 305.663521,174.229204 303.994577,174.229204 L303.891139,174.229204 L303.891139,547.999271 C303.891139,581.136759 277.033406,608 243.881484,608 L63.1185163,608 C29.9760987,608 3.10886076,581.138738 3.10886076,548.008722 L3.10886076,246.697128 Z" id="iPhone6-outline" stroke="#757676" stroke-width="3" fill="#D8D8D8"></path>
                            <ellipse id="home-button" stroke="#757676" stroke-width="3" cx="153.111392" cy="570.680307" rx="23.3164557" ry="23.3248082"></ellipse>
                            <ellipse id="camera" stroke="#757676" stroke-width="2" cx="106.478481" cy="41.2071611" rx="4.66329114" ry="4.66496164"></ellipse>
                            <use id="speaker" stroke="#757676" mask="url(#mask-2)" stroke-width="4" xlink:href="#path-1"></use>
                            <rect id="content" fill="#FFFFFF" x="22.5392405" y="72.3069054" width="261.921519" height="462.608696" rx="4"></rect>
                        </g>
                    </g>
                </g>
            </g>
        </g>
    </g>
</svg>