<?xml version="1.0" encoding="UTF-8"?>
<svg width="150px" height="58px" viewBox="0 0 150 58" version="1.1" xmlns="http://www.w3.org/2000/svg" xmlns:xlink="http://www.w3.org/1999/xlink">
    <!-- Generator: Sketch 42 (36781) - http://www.bohemiancoding.com/sketch -->
    <title>styaile</title>
    <desc>Created with Sketch.</desc>
    <defs></defs>
    <g id="Branding" stroke="none" stroke-width="1" fill="none" fill-rule="evenodd">
        <g id="Tablet-Portrait" transform="translate(-309.000000, -50.000000)" fill="#FFFFFF">
            <g id="Hero">
                <g id="Logo" transform="translate(58.000000, 43.000000)">
                    <path d="M263.618233,29.9422419 C264.84585,30.5862379 265.94264,31.3207848 266.908634,32.1459046 C267.874627,32.9710245 268.694704,33.8414122 269.368887,34.757094 C270.04307,35.6727758 270.556247,36.6035372 270.908432,37.5494063 C271.260618,38.4952754 271.436708,39.4210057 271.436708,40.3266251 C271.436708,41.4737429 271.109683,42.5051272 270.455625,43.420809 C269.801566,44.3364908 268.946272,45.1112868 267.889716,45.7452204 C266.83316,46.3791539 265.625686,46.8621436 264.267257,47.1942041 C262.908828,47.5262645 261.535326,47.6922922 260.14671,47.6922922 C259.100216,47.6922922 258.083925,47.5765759 257.097806,47.3451399 C256.111688,47.1137038 255.211113,46.7564927 254.396056,46.2734957 C253.580998,45.7904987 252.881669,45.1716681 252.298048,44.4169853 C251.714427,43.6623025 251.301873,42.7617279 251.060374,41.7152345 C251.020125,41.5542355 251,41.4234257 251,41.3228014 C251,40.7794298 251.191183,40.3115335 251.573556,39.9190984 C251.955929,39.5266634 252.378545,39.3304488 252.841417,39.3304488 C253.06279,39.3304488 253.309316,39.3706979 253.581002,39.4511974 C253.852688,39.5316969 254.058965,39.7128181 254.199839,39.9945663 C254.461462,40.4775633 254.828736,40.9102416 255.30167,41.2926142 C255.774605,41.6749868 256.302875,42.0020111 256.886496,42.2736969 C257.470118,42.5453827 258.088948,42.7566907 258.743007,42.9076273 C259.397065,43.0585638 260.03602,43.134031 260.659891,43.134031 C261.303887,43.134031 261.922718,43.0736573 262.516402,42.952908 C263.110085,42.8321588 263.633324,42.6409753 264.086134,42.379352 C264.538944,42.1177286 264.896155,41.7856732 265.157778,41.3831757 C265.419402,40.9806782 265.550211,40.4876262 265.550211,39.9040048 C265.550211,38.8776362 265.318779,37.9317813 264.855907,37.0664118 C264.393035,36.2010422 263.794328,35.4010904 263.059771,34.6665325 C262.325213,33.9319746 261.490043,33.2477391 260.554236,32.6138056 C259.61843,31.9798721 258.687668,31.3711037 257.761924,30.7874824 C257.6613,30.7271078 257.510365,30.5510178 257.309117,30.2592071 C257.107868,29.9673964 257.007245,29.670559 257.007245,29.3686859 C257.007245,29.1271874 257.067619,28.9360039 257.188368,28.7951298 C257.510366,28.3725074 257.88267,27.9398291 258.305293,27.4970819 C258.727915,27.0543347 259.180718,26.6468121 259.663715,26.2745019 C260.146712,25.9021917 260.669951,25.6003232 261.233447,25.3688871 C261.796944,25.137451 262.380556,25.0217348 262.984303,25.0217348 C263.42705,25.0217348 263.839604,25.0821085 264.221976,25.2028577 C264.604349,25.323607 264.926342,25.4795724 265.187965,25.6707587 C265.449589,25.861945 265.655866,26.073253 265.806802,26.3046891 C265.957739,26.5361251 266.033206,26.7524643 266.033206,26.953713 C266.033206,27.2354613 265.96277,27.507143 265.821896,27.7687664 C265.681022,28.0303897 265.494869,28.2819469 265.263433,28.5234454 C265.031997,28.7649439 264.770378,29.0064387 264.478567,29.2479372 C264.186756,29.4894357 263.899981,29.7208683 263.618233,29.9422419 Z M328.309318,30.4554236 C327.363449,30.4554236 326.447781,30.6969185 325.562286,31.1799155 C324.676792,31.6629125 323.891933,32.2968365 323.207688,33.0817066 C322.523442,33.8665767 321.980078,34.7470267 321.577581,35.7230831 C321.175084,36.6991395 320.973838,37.6802124 320.973838,38.6663313 C320.973838,39.0688287 320.998994,39.4864136 321.049306,39.9190984 C321.099618,40.3517832 321.215334,40.7492435 321.396458,41.1114912 C321.577582,41.473739 321.83417,41.7756076 322.166231,42.0171061 C322.498291,42.2586045 322.946063,42.379352 323.509559,42.379352 C323.952307,42.379352 324.470514,42.1831374 325.064198,41.7907024 C325.657882,41.3982673 326.271681,40.895153 326.905615,40.2813443 C327.539548,39.6675357 328.158379,38.9933625 328.762125,38.2588046 C329.365871,37.5242467 329.909235,36.8047932 330.392232,36.1004226 C330.875229,35.396052 331.267658,34.762128 331.569531,34.1986315 C331.871404,33.635135 332.022338,33.2225813 332.022338,32.9609579 C332.022338,32.5785853 331.891529,32.2314365 331.629905,31.9195009 C331.368282,31.6075654 331.046289,31.3409148 330.663916,31.1195412 C330.281544,30.8981675 329.874021,30.7321398 329.441336,30.621453 C329.008651,30.5107662 328.631316,30.4554236 328.309318,30.4554236 Z M374.689215,42.2618003 C373.407345,43.302268 372.130326,44.2219019 370.85812,45.0207285 C369.560066,45.8357859 368.272093,46.4848034 366.994164,46.9678004 C365.716234,47.4507973 364.473542,47.6922922 363.26605,47.6922922 C362.44093,47.6922922 361.751663,47.5816071 361.198229,47.3602334 C360.644795,47.1388598 360.202054,46.8369912 359.869994,46.4546186 C359.537934,46.072246 359.30147,45.6194431 359.160596,45.0961964 C359.019722,44.5729497 358.949286,44.0195239 358.949286,43.4359026 C358.949286,43.3573204 358.950212,43.2785785 358.952065,43.199677 C358.057894,43.9637638 357.146327,44.6512752 356.217348,45.2622258 C355.100417,45.9967837 353.978472,46.5854275 352.851479,47.0281747 C351.724486,47.4709219 350.587448,47.6922922 349.44033,47.6922922 C347.810215,47.6922922 346.527274,47.2747073 345.591467,46.4395251 C344.731961,45.6724387 344.267174,44.5106554 344.197096,42.9541446 C343.884045,43.2196825 343.56397,43.4859232 343.236869,43.7528678 C342.361437,44.4673008 341.465893,45.1163183 340.550211,45.6999396 C339.63453,46.283561 338.733955,46.7615196 337.84846,47.1338297 C336.962966,47.5061399 336.127796,47.6922922 335.342926,47.6922922 C334.638556,47.6922922 334.034818,47.5413579 333.531697,47.2394848 C333.028575,46.9376117 332.61099,46.5451825 332.278929,46.0621856 C331.946869,45.5791886 331.700343,45.030794 331.539344,44.4169853 C331.378345,43.8031766 331.297847,43.1742838 331.297847,42.5302878 C331.297847,42.1076654 331.328034,41.6900805 331.388408,41.2775206 C331.448783,40.8649607 331.549406,40.4775627 331.69028,40.115315 C331.066409,40.9605597 330.357017,41.8309474 329.562085,42.7265043 C328.767152,43.6220612 327.911858,44.4371064 326.996176,45.1716643 C326.080495,45.9062222 325.124577,46.5099594 324.128396,46.9828939 C323.132215,47.4558285 322.120955,47.6922922 321.094586,47.6922922 C320.57134,47.6922922 319.962571,47.5866382 319.268263,47.375327 C318.573955,47.1640158 317.914875,46.816867 317.291004,46.33387 C316.667133,45.850873 316.143894,45.2270113 315.721272,44.462266 C315.422652,43.9219063 315.229534,43.2961484 315.141917,42.5849824 C314.241634,43.0802764 313.428518,43.5198812 312.702556,43.9038036 C311.656062,44.4572376 310.730332,44.9553208 309.925337,45.398068 C309.120342,45.8408153 308.40592,46.2433067 307.782049,46.6055544 C307.158178,46.9678022 306.569534,47.3401068 306.0161,47.7224794 C305.462666,48.104852 304.919302,48.5123746 304.385993,48.9450594 C303.852684,49.3777442 303.274103,49.8858896 302.650231,50.469511 C302.187359,51.6770034 301.729525,52.8341663 301.276716,53.9410344 C300.823906,55.0479025 300.411352,56.0239443 300.039042,56.869189 C299.666732,57.7144337 299.359832,58.3986691 299.118334,58.9219159 C298.876835,59.4451626 298.746025,59.7269066 298.725901,59.7671564 C297.095786,63.1481352 295.304699,64.8385993 293.352586,64.8385993 C292.547591,64.8385993 291.893542,64.5719487 291.390421,64.0386396 C290.887299,63.5053304 290.635742,62.7858769 290.635742,61.8802576 C290.635742,61.0350129 290.741396,60.194812 290.952707,59.3596297 C291.164018,58.5244474 291.536323,57.6037482 292.069632,56.5975045 C292.602941,55.5912608 293.307301,54.4693159 294.182733,53.2316361 C295.058165,51.9939564 296.159985,50.539956 297.488227,48.8695915 L303.525659,36.6437915 C300.506928,40.2260191 297.769986,42.962961 295.314751,44.8546991 C292.859517,46.7464373 290.565316,47.6922922 288.432079,47.6922922 C287.747833,47.6922922 287.164221,47.5363268 286.681224,47.2243912 C286.198227,46.9124557 285.956732,46.3942479 285.956732,45.6697525 C285.956732,44.8620776 286.112319,43.9701359 286.423498,42.9939097 C285.432199,43.7390622 284.446469,44.4146646 283.466291,45.0207285 C282.148112,45.8357859 280.845046,46.4848034 279.557054,46.9678004 C278.269062,47.4507973 277.021338,47.6922922 275.813846,47.6922922 C275.008851,47.6922922 274.334678,47.5866382 273.791306,47.375327 C273.247934,47.1640158 272.810225,46.8722095 272.478165,46.4998994 C272.146104,46.1275892 271.90964,45.6949109 271.768766,45.2018515 C271.627892,44.7087921 271.557456,44.180522 271.557456,43.6170256 C271.557456,42.6107818 271.728515,41.5643041 272.070638,40.4775609 C272.412761,39.3908177 272.795128,38.4147759 273.21775,37.5494063 C273.821496,36.3016641 274.420202,35.0640029 275.013886,33.8363856 C275.60757,32.6087683 276.186151,31.4314808 276.749648,30.3044878 L275.4516,30.3044878 C274.324607,30.3044878 273.549811,30.1233667 273.127189,29.7611189 C272.704566,29.3988712 272.493258,28.9863175 272.493258,28.5234454 C272.493258,28.3221966 272.558663,28.0756706 272.689475,27.7838599 C272.820286,27.4920493 273.01147,27.2203675 273.263031,26.9688066 C273.514592,26.7172457 273.821491,26.5009065 274.183739,26.3197827 C274.545987,26.1386588 274.958541,26.0480982 275.421413,26.0480982 L278.681626,26.0480982 L285.051117,13.399678 C285.453614,12.6349328 285.951698,12.0865382 286.545381,11.7544778 C287.139065,11.4224173 287.757896,11.2563896 288.401892,11.2563896 C289.005638,11.2563896 289.559064,11.4173862 290.062186,11.7393842 C290.565307,12.0613822 290.816865,12.5946833 290.816865,13.3393037 C290.816865,13.7216763 290.731335,14.1090743 290.560274,14.5015094 C290.389212,14.8939444 290.162811,15.3517784 289.881063,15.8750252 C289.699939,16.217148 289.478568,16.6246706 289.216945,17.0976052 C288.955322,17.5705397 288.678609,18.073654 288.386798,18.6069632 C288.094987,19.1402723 287.793119,19.6987292 287.481183,20.2823506 C287.169248,20.8659719 286.862348,21.42946 286.560475,21.9728316 C285.876229,23.2608235 285.151745,24.6192321 284.386999,26.0480982 L294.228014,26.0480982 C294.475655,26.0480982 294.712714,26.0547111 294.939192,26.0679371 C295.566531,25.7327132 296.174707,25.5651036 296.763735,25.5651036 C297.387606,25.5651036 297.915876,25.7110068 298.348561,26.0028175 C298.781246,26.2946281 298.997585,26.6820262 298.997585,27.1650231 C298.997585,27.4065216 298.957336,27.6178296 298.876836,27.7989535 L293.352586,39.3002616 C293.070838,39.883883 292.929966,40.3467481 292.929966,40.688871 C292.929966,40.9907441 293.050713,41.1416784 293.292212,41.1416784 C293.513585,41.1416784 293.795329,41.0309933 294.137452,40.8096196 C294.479575,40.588246 294.801568,40.3366889 295.103441,40.0549406 L307.570739,27.7989535 C308.134235,27.3562063 308.612194,27.0191197 309.004629,26.7876836 C309.397064,26.5562476 309.73415,26.3851887 310.015899,26.2745019 C310.297647,26.1638151 310.554235,26.0984102 310.785671,26.0782854 C311.017107,26.0581605 311.253571,26.0480982 311.495069,26.0480982 C311.917692,26.0480982 312.21956,26.2040636 312.400684,26.5159992 C312.581808,26.8279347 312.672369,27.154959 312.672369,27.4970819 C312.672369,27.7788301 312.622057,28.0404496 312.521433,28.2819481 L305.759509,42.379352 C306.725503,41.6548565 307.837386,40.9454653 309.09519,40.2511572 C310.352995,39.556849 311.560469,38.9329873 312.717649,38.3795532 C313.87483,37.8261192 314.870996,37.3783475 315.706178,37.0362246 C315.787659,37.0028468 315.865741,36.9710972 315.940421,36.9409758 C316.131542,36.345074 316.355332,35.7378635 316.611793,35.1193399 C317.124977,33.8816601 317.779026,32.6590924 318.573959,31.4515999 C319.368891,30.2441075 320.309715,29.1624117 321.396458,28.2064802 C322.483201,27.2505487 323.720862,26.4757526 325.109479,25.8820688 C326.498095,25.288385 328.047687,24.9915476 329.758301,24.9915476 C330.643796,24.9915476 331.418592,25.1022327 332.082713,25.3236064 C332.746834,25.54498 333.310322,25.7864748 333.773194,26.0480982 C334.296441,26.3700962 334.759306,26.7222762 335.161803,27.1046488 C335.503926,26.923525 335.856106,26.7524661 336.218354,26.5914671 C336.520227,26.450593 336.837189,26.3248144 337.169249,26.2141276 C337.50131,26.1034408 337.788085,26.0480982 338.029583,26.0480982 C338.794329,26.0480982 339.41819,26.2594062 339.901187,26.6820286 C340.384184,27.1046509 340.625679,27.5675161 340.625679,28.070638 C340.625679,28.2115121 340.615617,28.3221972 340.595492,28.4026967 C340.494868,28.7850693 340.338902,29.2680591 340.127591,29.8516804 C339.91628,30.4353018 339.679816,31.0843192 339.418193,31.7987523 C339.156569,32.5131853 338.889919,33.2577945 338.618233,34.0326021 C338.346547,34.8074098 338.100021,35.5671124 337.878648,36.3117327 C337.657274,37.0563531 337.476153,37.755682 337.335279,38.4097404 C337.194405,39.0637988 337.123969,39.6222557 337.123969,40.0851278 C337.123969,40.688874 337.224591,41.1869572 337.42584,41.5793922 C337.627089,41.9718273 337.969207,42.1680419 338.452204,42.1680419 C338.754077,42.1680419 339.111288,42.0724501 339.523848,41.8812638 C339.936408,41.6900775 340.38418,41.4334892 340.867176,41.1114912 C341.350173,40.7894933 341.848257,40.4222198 342.361441,40.0096599 C342.874625,39.5971 343.372708,39.1795151 343.855705,38.7568927 C344.395723,38.2747338 344.95191,37.7602339 345.524268,37.2133893 C345.884065,36.3850152 346.263675,35.5863828 346.663111,34.8174683 C347.065609,34.0426606 347.407727,33.3030826 347.689475,32.598712 C347.790099,32.3370886 347.966189,31.9345972 348.21775,31.3912256 C348.469311,30.847854 348.735962,30.2944283 349.01771,29.7309318 C349.339708,29.0668109 349.681826,28.3624509 350.044073,27.6178305 C350.386196,27.0543341 350.778625,26.6518426 351.221373,26.4103441 C351.66412,26.1688456 352.116923,26.0480982 352.579795,26.0480982 C353.34454,26.0480982 354.00362,26.2946242 354.557054,26.7876836 C355.110488,27.2807431 355.387201,27.9096359 355.387201,28.6743812 C355.367076,28.855505 355.34192,29.0366262 355.311733,29.2177501 C355.281545,29.3988739 355.216141,29.5799951 355.115516,29.7611189 C354.833768,30.2843657 354.602335,30.7271063 354.421212,31.089354 C354.240088,31.4516017 354.07406,31.7886883 353.923123,32.1006239 C353.772187,32.4125594 353.626284,32.7194591 353.48541,33.0213323 C353.344535,33.3232054 353.173477,33.6854477 352.972228,34.10807 C352.730729,34.6111919 352.459048,35.1595865 352.157174,35.7532703 C351.855301,36.3469541 351.568526,36.9557224 351.29684,37.5795935 C351.025155,38.2034646 350.793722,38.817264 350.602536,39.4210103 C350.411349,40.0247565 350.315758,40.5781822 350.315758,41.0813041 C350.315758,41.6246757 350.451599,41.9818868 350.723284,42.1529483 C350.99497,42.3240097 351.382368,42.4095391 351.88549,42.4095391 C352.448987,42.4095391 353.03763,42.2887917 353.651439,42.0472932 C354.265248,41.8057947 354.884078,41.4938639 355.507949,41.1114912 C356.13182,40.7291186 356.74562,40.2914092 357.349366,39.7983498 C357.953112,39.3052904 358.521631,38.8072072 359.054941,38.3040853 C359.58825,37.8009635 360.081302,37.3179737 360.534111,36.8551016 C360.671351,36.7148123 360.801658,36.5791453 360.925031,36.4481001 C361.468035,35.2496311 362.016936,34.0570702 362.571745,32.8703965 C363.29624,31.3207811 363.960351,29.9019988 364.564097,28.6140068 L373.710807,9.14328839 C374.073055,8.35841829 374.561076,7.80499255 375.174884,7.48299457 C375.788693,7.16099658 376.407524,7 377.031395,7 C377.655266,7 378.223785,7.17105886 378.736969,7.51318173 C379.250154,7.85530459 379.506742,8.40873033 379.506742,9.17347555 C379.506742,9.53572328 379.421212,9.91809016 379.250151,10.3205876 C379.07909,10.7230851 378.86275,11.1557634 378.601127,11.6186355 C378.098005,12.5645046 377.499299,13.7216675 376.804991,15.090159 C376.110683,16.4586504 375.366074,17.9478688 374.571141,19.5578587 C373.776209,21.1678487 372.961163,22.8432193 372.125981,24.5840209 C371.290799,26.3248225 370.475754,28.0203178 369.680821,29.6705575 C368.885889,31.3207971 368.141279,32.8854826 367.446971,34.3646609 C366.752663,35.8438392 366.153957,37.1267806 365.650835,38.2135238 C365.429462,38.676396 365.213122,39.2147283 365.001811,39.8285369 C364.7905,40.4423456 364.684846,40.9907402 364.684846,41.4737372 C364.684846,41.7756103 364.74522,42.0171052 364.865969,42.198229 C364.986718,42.3793529 365.218151,42.4699135 365.560274,42.4699135 C365.982896,42.4699135 366.511166,42.3441349 367.1451,42.092574 C367.779033,41.841013 368.463269,41.5089576 369.197827,41.0963977 C369.932384,40.6838377 370.697118,40.2109103 371.492051,39.6776011 C372.286983,39.144292 373.076873,38.5908662 373.861743,38.0173073 C374.039043,37.8877418 374.214545,37.7581767 374.38825,37.6286119 C374.472301,37.2108125 374.588607,36.7768847 374.73717,36.3268263 C375.079293,35.2903953 375.572345,34.2489487 376.216341,33.2024552 C376.860337,32.1559618 377.650227,31.1346397 378.586033,30.1384584 C379.52184,29.1422772 380.573349,28.2618271 381.740592,27.4970819 C382.907834,26.7323367 384.190776,26.1185372 385.589455,25.6556651 C386.988133,25.192793 388.482383,24.9613604 390.072248,24.9613604 C391.742612,24.9613604 392.990336,25.3638519 393.815456,26.1688469 C394.640576,26.9738418 395.053129,28.0907556 395.053129,29.5196217 C395.053129,30.3648664 394.831759,31.2503476 394.389012,32.1760918 C393.946265,33.101836 393.181531,34.0426597 392.094788,34.9985913 C391.008044,35.9545228 389.554044,36.9305646 387.732743,37.9267458 C385.911442,38.9229271 383.632334,39.9241246 380.895351,40.9303683 C380.995976,41.5139896 381.307906,41.9718237 381.831153,42.3038841 C382.3544,42.6359445 383.048698,42.8019722 383.914067,42.8019722 C384.839811,42.8019722 385.830947,42.6661314 386.887503,42.3944456 C387.944058,42.1227598 388.990536,41.7756109 390.026967,41.3529885 C391.063398,40.9303662 392.074658,40.4725321 393.060777,39.9794727 C394.046896,39.4864133 394.937408,39.018517 395.732341,38.5757698 C396.527273,38.1330225 397.191384,37.7506557 397.724693,37.4286577 C398.258002,37.1066597 398.615213,36.905414 398.796337,36.8249145 C398.977461,36.7041652 399.143489,36.6337292 399.294425,36.6136043 C399.445362,36.5934795 399.581203,36.5834172 399.701952,36.5834172 C399.943451,36.5834172 400.144696,36.6387598 400.305695,36.7494466 C400.466694,36.8601334 400.602535,36.9909431 400.713222,37.1418797 C400.823909,37.2928162 400.899376,37.4538128 400.939626,37.6248742 C400.979875,37.7959357 401,37.9418388 401,38.062588 C401,38.2437119 400.979875,38.4600511 400.939626,38.711612 C400.899376,38.9631729 400.748442,39.2499481 400.486818,39.5719461 C400.386194,39.6725704 400.049107,39.9442522 399.475548,40.3869994 C398.901989,40.8297466 398.162411,41.3529855 397.256792,41.9567317 C396.351173,42.560478 395.299664,43.1994331 394.102234,43.8736164 C392.904804,44.5477997 391.636956,45.1666303 390.298652,45.7301268 C388.960348,46.2936233 387.566721,46.7615196 386.11773,47.1338297 C384.668739,47.5061399 383.239894,47.6922922 381.831153,47.6922922 C380.623661,47.6922922 379.552027,47.4608596 378.616221,46.9979875 C377.680414,46.5351154 376.885493,45.9112537 376.231435,45.1263836 C375.577376,44.3415135 375.079293,43.4359077 374.73717,42.4095391 C374.720793,42.3604081 374.704808,42.3111618 374.689215,42.2618003 Z M290.019597,35.4308747 C290.155505,35.1473685 290.295481,34.8523385 290.439525,34.5457839 C290.83196,33.7106016 291.264638,32.7446221 291.737573,31.6478165 C291.946978,31.1621745 292.167232,30.6400402 292.398336,30.08141 L282.394647,30.153552 C281.650026,31.602543 280.945666,33.0162942 280.281546,34.3948481 C279.617425,35.7734019 278.993563,37.0462811 278.409942,38.2135238 C278.168443,38.6965208 277.931979,39.2549777 277.700543,39.8889112 C277.469107,40.5228448 277.353391,41.0813017 277.353391,41.5642987 C277.353391,41.8460469 277.418796,42.0674172 277.549608,42.2284162 C277.680419,42.3894152 277.896758,42.4699135 278.198632,42.4699135 C278.621254,42.4699135 279.154555,42.3441349 279.798551,42.092574 C280.442547,41.841013 281.136845,41.5089576 281.881465,41.0963977 C282.626085,40.6838377 283.410944,40.2109103 284.236064,39.6776011 C285.061183,39.144292 285.871197,38.5908662 286.66613,38.0173073 C287.461063,37.4437484 288.220765,36.8701981 288.945261,36.2966392 C289.325554,35.9955734 289.683665,35.706986 290.019597,35.4308747 Z M353.364661,20.8257195 C353.364661,20.3628474 353.45019,19.8848888 353.621252,19.3918293 C353.792313,18.8987699 354.048901,18.4509982 354.391024,18.0485007 C354.733147,17.6460032 355.160794,17.3139478 355.673979,17.0523244 C356.187163,16.790701 356.795931,16.6598913 357.500302,16.6598913 C358.667545,16.6598913 359.48259,16.8862928 359.945462,17.3391024 C360.408334,17.7919121 360.639767,18.3604313 360.639767,19.044677 C360.639767,19.4270496 360.564299,19.8496656 360.413363,20.3125377 C360.262426,20.7754098 360.036025,21.203057 359.734152,21.5954921 C359.432279,21.9879271 359.039849,22.3149514 358.556852,22.5765748 C358.073856,22.8381981 357.500305,22.9690078 356.836184,22.9690078 C355.588442,22.9690078 354.713023,22.7727933 354.209901,22.3803582 C353.70678,21.9879232 353.425036,21.4697154 353.364661,20.8257195 Z M388.98551,29.1271886 C388.884886,29.1070637 388.794325,29.0970014 388.713826,29.0970014 L388.442141,29.0970014 C387.677396,29.0970014 386.962974,29.2479357 386.298853,29.5498088 C385.634732,29.8516819 385.025964,30.2491422 384.47253,30.7422017 C383.919096,31.2352611 383.426044,31.793718 382.993359,32.4175891 C382.560674,33.0414602 382.173276,33.6602908 381.831153,34.2740994 C381.48903,34.8879081 381.202255,35.4765518 380.970819,36.0400483 C380.739383,36.6035448 380.563293,37.0764722 380.442544,37.4588448 C381.146914,37.0965971 381.87643,36.6840434 382.631113,36.2211713 C383.385796,35.7582992 384.095187,35.3155586 384.759308,34.8929362 C385.423429,34.4703138 386.00201,34.087947 386.495069,33.7458241 C386.988129,33.4037012 387.335278,33.1722687 387.536526,33.0515194 C388.442146,32.4880229 389.066008,31.9597529 389.40813,31.4666935 C389.750253,30.9736341 389.921312,30.5459869 389.921312,30.1837392 C389.921312,29.8818661 389.82572,29.6403712 389.634534,29.4592473 C389.443348,29.2781235 389.227009,29.1674383 388.98551,29.1271886 Z" id="styaile"></path>
                </g>
            </g>
        </g>
    </g>
</svg>